HIERARCHY
ROOT root
{
	OFFSET 0.000000 0.000000 0.000000
	CHANNELS 6 Xposition Yposition Zposition Zrotation Yrotation Xrotation
	JOINT lhip
	{
		OFFSET 0.058581 -0.082280 -0.017664
		CHANNELS 3 Zrotation Yrotation Xrotation
		JOINT lknee
		{
			OFFSET 0.043451 -0.386469 0.008037
			CHANNELS 3 Zrotation Yrotation Xrotation
			JOINT lankle
			{
				OFFSET -0.014790 -0.426874 -0.037428
				CHANNELS 3 Zrotation Yrotation Xrotation
				JOINT ltoe
				{
					OFFSET 0.041054 -0.060286 0.122042
					CHANNELS 3 Zrotation Yrotation Xrotation
					End Site
					{
						OFFSET 0.000000 0.000000 0.000000
					}
				}
			}
		}
	}
	JOINT rhip
	{
		OFFSET -0.060310 -0.090513 -0.013543
		CHANNELS 3 Zrotation Yrotation Xrotation
		JOINT rknee
		{
			OFFSET -0.043257 -0.383688 -0.004843
			CHANNELS 3 Zrotation Yrotation Xrotation
			JOINT rankle
			{
				OFFSET 0.019056 -0.420046 -0.034562
				CHANNELS 3 Zrotation Yrotation Xrotation
				JOINT rtoe
				{
					OFFSET -0.034840 -0.062106 0.130323
					CHANNELS 3 Zrotation Yrotation Xrotation
					End Site
					{
						OFFSET 0.000000 0.000000 0.000000
					}
				}
			}
		}
	}
	JOINT lowerback
	{
		OFFSET 0.004439 0.124404 -0.038385
		CHANNELS 3 Zrotation Yrotation Xrotation
		JOINT upperback
		{
			OFFSET 0.004488 0.137956 0.026820
			CHANNELS 3 Zrotation Yrotation Xrotation
			JOINT chest
			{
				OFFSET -0.002265 0.056032 0.002855
				CHANNELS 3 Zrotation Yrotation Xrotation
				JOINT lowerneck
				{
					OFFSET -0.013390 0.211636 -0.033468
					CHANNELS 3 Zrotation Yrotation Xrotation
					JOINT upperneck
					{
						OFFSET 0.010113 0.088937 0.050410
						CHANNELS 3 Zrotation Yrotation Xrotation
						End Site
						{
							OFFSET 0.000000 0.000000 0.000000
						}
					}
				}
				JOINT lclavicle
				{
					OFFSET 0.071702 0.114000 -0.018898
					CHANNELS 3 Zrotation Yrotation Xrotation
					JOINT lshoulder
					{
						OFFSET 0.122921 0.045205 -0.019046
						CHANNELS 3 Zrotation Yrotation Xrotation
						JOINT lelbow
						{
							OFFSET 0.255332 -0.015649 -0.022946
							CHANNELS 3 Zrotation Yrotation Xrotation
							JOINT lwrist
							{
								OFFSET 0.265709 0.012698 -0.007375
								CHANNELS 3 Zrotation Yrotation Xrotation
								End Site
								{
									OFFSET 0.000000 0.000000 0.000000
								}
							}
						}
					}
				}
				JOINT rclavicle
				{
					OFFSET -0.082954 0.112472 -0.023707
					CHANNELS 3 Zrotation Yrotation Xrotation
					JOINT rshoulder
					{
						OFFSET -0.113228 0.046853 -0.008472
						CHANNELS 3 Zrotation Yrotation Xrotation
						JOINT relbow
						{
							OFFSET -0.260127 -0.014369 -0.031269
							CHANNELS 3 Zrotation Yrotation Xrotation
							JOINT rwrist
							{
								OFFSET -0.269108 0.006794 -0.006027
								CHANNELS 3 Zrotation Yrotation Xrotation
								End Site
								{
									OFFSET 0.000000 0.000000 0.000000
								}
							}
						}
					}
				}
			}
		}
	}
}
MOTION
Frames: 5
Frame Time: 0.033333
-0.237406 0.710381 1.009792 8.356710 0.942002 87.851381 3.109031 0.293015 -2.496964 -4.021730 -0.325111 10.578887 2.337268 10.964627 -7.846468 0.000000 -0.000000 0.000000 -0.166106 -2.320711 -6.149219 1.707882 -0.255140 15.090025 -0.377255 -4.949270 -10.764965 0.000000 -0.000000 0.000000 2.075797 -0.531494 8.689531 0.334246 -0.776247 -0.250523 0.550960 0.378857 -0.953371 -5.584526 28.109361 -3.524351 -4.549638 30.884687 0.303712 -25.011047 -1.822115 4.211276 -52.247363 -2.587965 23.290347 -86.942196 -77.819721 97.073221 18.145541 -0.131522 -51.499340 19.461744 0.410791 3.937521 48.675556 7.093076 27.848088 85.366910 79.533629 102.783788 -12.502511 17.765513 -24.600479 
-0.242688 0.710849 1.010135 8.157235 0.719190 87.665764 3.265207 -0.344393 -3.921281 -4.472128 -0.263385 13.412121 2.286851 11.836377 -7.985650 0.000000 -0.000000 0.000000 -0.114539 -2.452572 -6.013586 2.006661 0.467682 15.067221 -0.552467 -5.453873 -10.753586 0.000000 -0.000000 0.000000 1.721821 -0.259384 9.214990 0.453831 -0.903080 -0.496020 0.536335 0.363919 -0.773513 -5.330424 28.379689 -3.493518 -4.381669 30.730721 0.670614 -24.999250 -2.109062 4.522984 -52.155442 -3.241326 23.042235 -87.618684 -77.181103 99.270017 18.278108 0.458253 -52.780584 19.681321 0.389503 4.136853 49.372895 7.322159 27.887662 84.443223 79.666029 103.447761 -13.788412 17.395965 -25.287688 
-0.247206 0.711639 1.010637 7.907679 0.500196 87.491810 3.418786 -1.085029 -5.553942 -5.104384 -0.464557 16.639624 2.339400 12.280408 -8.696026 0.000000 -0.000000 0.000000 -0.141464 -2.567171 -6.015441 2.152705 0.627164 15.253008 -0.644097 -5.298205 -10.833339 0.000000 -0.000000 0.000000 1.388386 0.175467 9.663976 0.562760 -1.122740 -0.629492 0.578708 0.314647 -0.618587 -5.185478 28.640531 -3.445202 -4.180215 30.614365 0.933638 -24.884474 -2.527659 4.454748 -52.318934 -3.574860 23.366486 -88.046972 -77.001751 99.552808 19.540407 1.451516 -52.820685 19.800523 0.558277 4.143814 49.886526 7.567310 28.122617 83.397678 79.611422 102.810627 -14.675572 17.032431 -25.519230 
-0.251226 0.711767 1.011165 7.398671 0.264732 87.143654 3.534812 -2.414573 -6.574813 -5.979779 -1.787085 19.015896 2.528516 12.251118 -11.372911 0.000000 -0.000000 0.000000 -0.120310 -2.565456 -5.721090 2.143249 0.832856 15.290116 -0.539100 -5.119150 -10.949894 0.000000 -0.000000 0.000000 1.042960 0.756374 10.113608 0.662554 -1.216072 -0.530842 0.668983 0.351731 -0.545749 -5.046704 28.727586 -3.229708 -3.945280 30.594264 1.047076 -24.772777 -3.084110 4.381838 -52.474549 -3.694797 23.749806 -88.230828 -76.994504 100.009049 20.856327 1.964833 -51.437212 19.704052 0.998506 4.061761 50.355582 7.469797 28.221768 83.207042 79.900088 102.926437 -13.699795 17.131440 -25.245116 
-0.252445 0.711009 1.011304 6.950738 0.193663 87.014678 3.461911 -3.152750 -6.146749 -6.130706 -3.479296 17.796478 2.494477 11.476529 -12.575469 0.000000 -0.000000 0.000000 -0.080790 -2.445625 -5.497516 2.107251 0.964001 15.142256 -0.464553 -5.031870 -10.968135 0.000000 -0.000000 0.000000 0.977913 0.967407 10.017735 0.665203 -1.101236 -0.209716 0.710709 0.456037 -0.622376 -4.959220 28.684960 -2.870503 -3.870404 30.631669 0.998239 -24.873299 -3.251450 4.320212 -52.473827 -3.546402 23.935025 -88.257272 -77.130162 100.193466 21.273946 1.887713 -50.133524 19.652064 1.313299 4.010930 50.365245 7.280285 28.241703 83.949771 80.157588 103.831733 -12.331940 17.574690 -24.279691 
